HIERARCHY
ROOT hip
{
	OFFSET 0.000000 0.000000 0.000000 
	CHANNELS 6 Xposition Yposition Zposition Xrotation Zrotation Yrotation
	JOINT abdomen
	{
		OFFSET 0.000000 3.402643 0.000000 
		CHANNELS 3 Xrotation Zrotation Yrotation
		JOINT chest
		{
			OFFSET 0.000000 8.438565 -0.680529 
			CHANNELS 3 Xrotation Zrotation Yrotation
			JOINT neck
			{
				OFFSET 0.000000 10.207942 -0.272212 
				CHANNELS 3 Xrotation Zrotation Yrotation
				JOINT head
				{
					OFFSET 0.000000 3.130431 0.000000 
					CHANNELS 3 Xrotation Zrotation Yrotation
					End Site
					{
						OFFSET 0.000000 3.130435 0.000000 
					}
				}
			}
			JOINT lCollar
			{
				OFFSET 3.470700 6.669187 -0.816635 
				CHANNELS 3 Yrotation Zrotation Xrotation
				JOINT lShldr
				{
					OFFSET 3.198488 0.000000 0.000000 
					CHANNELS 3 Zrotation Yrotation Xrotation
					JOINT lForeArm
					{
						OFFSET 10.139888 0.000000 0.000000 
						CHANNELS 3 Yrotation Zrotation Xrotation
						JOINT lHand
						{
							OFFSET 8.370511 0.000000 0.000000 
							CHANNELS 3 Zrotation Yrotation Xrotation
							End Site
							{
								OFFSET 4.083176 0.000000 0.000000 
							}
						}
					}
				}
			}
			JOINT rCollar
			{
				OFFSET -3.470700 6.669187 -0.816635 
				CHANNELS 3 Yrotation Zrotation Xrotation
				JOINT rShldr
				{
					OFFSET -3.198488 0.000000 0.000000 
					CHANNELS 3 Zrotation Yrotation Xrotation
					JOINT rForeArm
					{
						OFFSET -10.139888 0.000000 0.000000 
						CHANNELS 3 Yrotation Zrotation Xrotation
						JOINT rHand
						{
							OFFSET -8.370511 0.000000 0.000000 
							CHANNELS 3 Zrotation Yrotation Xrotation
							End Site
							{
								OFFSET -4.083176 0.000000 0.000000 
							}
						}
					}
				}
			}
		}
	}
	JOINT lThigh
	{
		OFFSET 5.308129 -1.633274 1.361059 
		CHANNELS 3 Xrotation Zrotation Yrotation
		JOINT lShin
		{
			OFFSET -2.041588 -20.007561 0.000000 
			CHANNELS 3 Xrotation Zrotation Yrotation
			JOINT lFoot
			{
				OFFSET 0.000000 -19.190928 -1.224953 
				CHANNELS 3 Xrotation Yrotation Zrotation
				End Site
				{
					OFFSET 0.000000 -2.449906 4.627600 
				}
			}
		}
	}
	JOINT rThigh
	{
		OFFSET -5.308129 -1.633274 1.361059 
		CHANNELS 3 Xrotation Zrotation Yrotation
		JOINT rShin
		{
			OFFSET 2.041588 -20.007561 0.000000 
			CHANNELS 3 Xrotation Zrotation Yrotation
			JOINT rFoot
			{
				OFFSET 0.000000 -19.190928 -1.224953 
				CHANNELS 3 Xrotation Yrotation Zrotation
				End Site
				{
					OFFSET 0.000000 -2.449906 4.627600 
				}
			}
		}
	}
}
MOTION
Frames: 11
Frame Time: 0.016667
-12.406858 43.564236 14.802964 5.678790 2.390570 -18.648899 -21.039000 2.405060 -2.347350 15.818100 4.068130 -0.932475 6.226840 5.074150 1.541600 10.062100 7.125850 1.555190 2.000000 -2.000000 0.000000 -93.659698 -12.419300 -132.862000 70.889198 -0.259610 0.129232 -179.914993 -179.893997 1.535360 -2.000000 2.000000 0.000000 81.218697 15.271900 -144.324997 -63.389198 0.276089 0.122239 -0.072594 0.051314 -155.574005 -7.778289 -4.915547 0.679969 26.761898 2.762753 2.045594 -15.279895 7.792682 1.799545 -28.577118 -2.875067 1.816100 43.578453 -2.011296 -3.197132 -14.581981 -3.387661 -1.751440 
-12.032547 43.569134 14.374955 5.825650 2.448240 -18.910299 -20.990200 2.375280 -2.259930 15.847500 4.068300 -0.891334 6.022250 5.174490 1.521740 10.013500 7.165430 1.553170 2.000000 -2.000000 0.000000 -93.785301 -12.925800 -132.020996 70.293503 -0.260951 0.128760 -179.912994 -179.882004 0.490460 -2.000000 2.000000 0.000000 81.600098 15.350700 -144.705002 -62.783699 0.277377 0.121585 -0.072051 0.049679 -154.959000 -8.226920 -5.090210 0.956662 26.208853 2.696877 2.039577 -15.312280 7.719123 1.794733 -29.301794 -3.059173 2.154851 43.323338 -2.009902 -3.173873 -13.863853 -3.199112 -1.657931 
-11.673964 43.565395 13.965931 5.835900 2.555070 -19.299299 -20.921801 2.317340 -2.108520 15.867100 4.058680 -0.830559 5.728790 5.198380 1.480220 9.905400 7.176760 1.540770 2.000000 -2.000000 0.000000 -93.872299 -13.227600 -131.425003 69.853996 -0.261937 0.128403 -179.910995 -179.889008 -0.740044 -2.000000 2.000000 0.000000 81.951897 15.351000 -144.871002 -62.334499 0.278328 0.121091 -0.071551 0.048117 -154.373001 -8.644080 -5.325753 1.397256 25.832134 2.630055 2.021809 -15.302937 7.637695 1.795039 -29.909986 -3.260399 2.659606 43.215069 -2.021387 -3.171114 -13.699866 -3.048264 -1.594920 
-11.344026 43.562046 13.572186 5.709680 2.740260 -19.784599 -20.843800 2.241270 -1.866390 15.886700 4.058790 -0.731520 5.524870 5.258300 1.435880 9.826960 7.197360 1.523200 2.000000 -2.000000 0.000000 -93.871498 -13.363600 -131.005005 69.600098 -0.262505 0.128193 -179.908005 -179.876007 -2.087680 -2.000000 2.000000 0.000000 82.293602 15.321600 -144.783005 -61.992699 0.279049 0.120711 -0.071404 0.047647 -154.197006 -9.035674 -5.674708 1.944611 25.700438 2.586552 2.053523 -15.203019 7.587999 1.792337 -30.381184 -3.464322 3.299671 43.312031 -2.041454 -3.176234 -14.458384 -2.712281 -1.573828 
-11.050699 43.566036 13.187878 5.486130 3.013500 -20.306299 -20.794600 2.129220 -1.581140 15.857000 4.107290 -0.610629 5.450600 5.333010 1.374120 9.787880 7.217360 1.490960 2.000000 -2.000000 0.000000 -93.812500 -13.314500 -130.779999 69.453697 -0.262832 0.128070 -179.904999 -179.873993 -3.454860 -2.000000 2.000000 0.000000 82.634903 15.301400 -144.442001 -61.641102 0.279789 0.120314 -0.071356 0.047490 -154.139008 -9.397712 -6.107365 2.540395 25.637663 2.531257 2.062700 -14.994366 7.541728 1.773687 -30.641445 -3.679072 3.903928 43.535469 -2.054570 -3.156657 -15.956707 -2.282633 -1.593984 
-10.789716 43.577763 12.818509 5.233190 3.277330 -20.823000 -20.774401 2.008650 -1.262980 15.807900 4.136190 -0.479825 5.543810 5.394200 1.316180 9.798010 7.236650 1.455070 2.000000 -2.000000 0.000000 -93.714798 -13.109400 -130.791000 69.307198 -0.263160 0.127947 -179.903000 -179.871002 -4.792740 -2.000000 2.000000 0.000000 83.014999 15.300400 -143.914001 -61.182201 0.280750 0.119790 -0.071115 0.056471 -153.845993 -9.719663 -6.493983 3.093583 25.596773 2.462746 2.097805 -14.676610 7.449447 1.732195 -30.752926 -3.801033 4.360981 44.077282 -2.015866 -3.206244 -17.756166 -1.921808 -1.649022 
-10.550133 43.594398 12.472058 5.028330 3.385390 -21.323299 -20.753901 1.897170 -0.948419 15.798700 4.038820 -0.345500 5.845330 5.547260 1.271590 9.897330 7.293480 1.434260 2.000000 -2.000000 0.000000 -93.558899 -12.855800 -131.016006 69.102097 -0.263617 0.127774 -179.899994 -179.869003 -6.130650 -2.000000 2.000000 0.000000 83.473198 15.377400 -143.328003 -60.576698 0.282013 0.119087 -0.070745 0.055240 -153.386993 -10.098256 -6.685600 3.554331 25.747490 2.430068 2.107573 -14.438996 7.342481 1.712432 -30.682678 -3.713456 4.451475 44.951176 -1.974841 -3.246846 -19.470526 -1.952823 -1.775982 
-10.322849 43.612442 12.152231 4.920140 3.269190 -21.759600 -20.773001 1.844510 -0.699465 15.809700 3.834500 -0.220462 6.212920 5.711930 1.289180 10.016500 7.359680 1.436680 2.000000 -2.000000 0.000000 -93.422897 -12.514800 -131.475006 68.838402 -0.264204 0.127548 -179.897003 -179.865997 -7.546660 -2.000000 2.000000 0.000000 83.941002 15.395700 -142.703003 -59.922401 0.283368 0.118312 -0.060757 0.044714 -153.102997 -10.525126 -6.616340 3.819923 26.066315 2.397440 2.153457 -14.287306 7.311868 1.707464 -30.429165 -3.401901 4.155319 46.033504 -1.897098 -3.323973 -20.779242 -2.260482 -1.972812 
-10.105824 43.625080 11.863297 4.860140 2.987290 -22.177601 -20.811899 1.839580 -0.490103 15.850300 3.562200 -0.106961 6.548790 5.801010 1.323560 10.096100 7.407010 1.442030 2.000000 -2.000000 0.000000 -93.326302 -12.047100 -132.158997 68.516197 -0.264921 0.127269 0.106179 -0.126333 171.134995 -2.000000 2.000000 0.000000 84.418602 15.306800 -142.147003 -59.287601 0.284675 0.117546 -0.060734 0.044635 -153.074005 -11.037928 -6.446489 3.938682 26.675720 2.394471 2.180487 -14.221804 7.558291 1.767332 -29.984350 -2.941913 3.520463 47.369205 -1.825756 -3.395554 -21.767618 -2.675725 -2.201848 
-9.903614 43.629841 11.590764 4.800250 2.695600 -22.566500 -20.870300 1.849300 -0.297317 15.900300 3.328850 0.002924 6.963290 5.897820 1.373790 10.214800 7.443980 1.451550 2.000000 -2.000000 0.000000 -93.268898 -11.491700 -132.912003 68.174400 -0.265679 0.126968 0.108368 -0.128016 170.149002 -2.000000 2.000000 0.000000 84.857300 15.100900 -141.716995 -58.701698 0.285873 0.116826 -0.060643 0.044319 -152.957001 -11.447473 -6.286765 3.906975 27.139566 2.372597 2.206131 -14.076675 7.973340 1.855317 -29.345644 -2.483883 2.725724 48.588192 -1.738374 -3.470841 -22.290876 -3.026921 -2.348047 
-9.722806 43.630493 11.326230 4.740750 2.471990 -22.910101 -20.948200 1.877070 -0.111964 15.930300 3.182980 0.104293 7.458990 6.018570 1.402130 10.363500 7.499820 1.458670 2.000000 -2.000000 0.000000 -93.221100 -10.906900 -133.606003 67.871597 -0.266349 0.126697 0.109903 -0.129161 169.464996 -2.000000 2.000000 0.000000 85.237503 14.807300 -141.386002 -58.145000 0.287004 0.116130 -0.060220 0.042819 -152.399994 -11.827702 -6.172037 3.823793 27.564665 2.358248 2.262970 -13.958942 8.326814 1.956039 -28.586081 -2.101744 1.890726 49.796741 -1.664675 -3.549816 -22.582199 -3.195982 -2.420079 
